<svg id="Layer_1" data-name="Layer 1" xmlns="http://www.w3.org/2000/svg" viewBox="0 0 101.59 115.93"><defs><style>.cls-1,.cls-2,.cls-3{fill:none;stroke-miterlimit:10;stroke-width:1.8px;}.cls-1{stroke:#fff;}.cls-2,.cls-3{stroke:#ff1d25;}.cls-2{stroke-linecap:round;}</style></defs><title>Features Images</title><path class="cls-1" d="M1.9,30.71V84.22a2.06,2.06,0,0,0,1,1.78l46.34,26.75a2,2,0,0,0,2,0L97.66,86a2.06,2.06,0,0,0,1-1.78V30.71a2.06,2.06,0,0,0-1-1.78L51.32,2.17a2.08,2.08,0,0,0-2,0L2.93,28.93A2.06,2.06,0,0,0,1.9,30.71Z"/><polyline class="cls-2" points="26.68 55.5 26.68 71.1 50.3 84.73 73.91 71.1 73.91 55.57"/><polyline class="cls-3" points="73.91 43.83 50.3 30.2 26.68 43.83"/><polyline class="cls-2" points="73.79 43.83 50.18 57.47 50.18 85.01 50.18 101.22"/><polyline class="cls-2" points="14.17 36.67 50.17 57.47 86.37 36.12"/></svg>