<svg id="Layer_1" data-name="Layer 1" xmlns="http://www.w3.org/2000/svg" xmlns:xlink="http://www.w3.org/1999/xlink" viewBox="0 0 61.2215 60.0249"><defs><style>.cls-1{fill:#1c262d;}</style><symbol id="New_Symbol_18" data-name="New Symbol 18" viewBox="0 0 43.396 42.548"><path class="cls-1" d="M13.4648,42.5482l.4883-2.2783a50.1425,50.1425,0,0,0,.8057-5.1772c1.0947-8.11.8525-13.5567-.6777-15.35l-.1866-.2178.1192-.2607a13.5751,13.5751,0,0,1,1.6435-2.6836c.2285-.295.4815-.58.7354-.8638l.32-.3589.3086.1567a6.21,6.21,0,0,1,.9316.5694l.1543.12c.0811.065.1621.1309.2422.2007a11.3826,11.3826,0,0,1,3.252,6.1919l.0029.0151a19.5644,19.5644,0,0,1,.2539,2.71,2.1894,2.1894,0,0,0,.0039.2671c.0068.353.0088.6787.001,1.0156a15.26,15.26,0,0,1-.9551,5.271A11.147,11.147,0,0,1,18.9248,35.1c-.7217.7549-1.4307,1.5-2.14,2.2515a7.894,7.894,0,0,0-.9336,1.3911c-.4727.8779-.8272,1.4912-1.085,1.873ZM14.9473,19.393c1.9677,2.7544,1.4795,10.0683.705,15.8076-.0986.9277-.2158,1.8252-.3486,2.6865a8.0246,8.0246,0,0,1,.8154-1.14c.7227-.7661,1.4317-1.5132,2.1416-2.2539a10.2108,10.2108,0,0,0,1.81-2.9483,14.3465,14.3465,0,0,0,.8926-4.96c.0078-.3252.0059-.64.001-.9507a2.8754,2.8754,0,0,1-.0059-.314,18.5945,18.5945,0,0,0-.2392-2.55,10.4679,10.4679,0,0,0-2.917-5.65c-.1123-.0976-.1836-.1557-.2559-.2129l-.1338-.1035a4.8679,4.8679,0,0,0-.4941-.3227c-.1905.2138-.378.4292-.55.6513A12.987,12.987,0,0,0,14.9473,19.393Z"/><path class="cls-1" d="M15.57,35.8134l-.6123-.4507c-3.0644-2.2559-4.7226-5.7441-4.9267-10.3687-.001-.4614.0117-.8955.0332-1.3237l.0136-.2348a19.373,19.373,0,0,1,7.624-14.72L17.6426,8.71c-.8994-.09-1.8613-.1353-2.8594-.1353a6.2354,6.2354,0,0,0-3.1387.6348,4.7822,4.7822,0,0,0-1.5927,1.9018l-.8477,1.6045V10.9008a13.8533,13.8533,0,0,1,.3926-2.4072c.1211-.5533.2646-1.1031.4267-1.6338l.0245.0058A11.5452,11.5452,0,0,1,11.07,4.6317a5.051,5.051,0,0,1,4.292-2.769,22.4691,22.4691,0,0,1,3.9434.2642c.5673.09,1.1455.1963,1.7334.3046.6943.1275,1.4033.2579,2.1269.3672.3037.0459.9033.1148,1.0488.1319,3.5772.5234,8.5137-.2032,10.47-.54l.7851-.1347-.2509.7353-2.6,6.6636h-.3076a22.8594,22.8594,0,0,0-6.2959.7446,17.2559,17.2559,0,0,0-4.2334,1.9644,21.6019,21.6019,0,0,0-4.6279,3.852l-.09.1006c-.24.2686-.48.5366-.6963.8154-.17.2188-.3272.4366-.4766.6538-.0918.13-.1728.2588-.2549.3872l-.1006.1583c-.1718.2778-.2822.4741-.3877.67-.1738.3232-.3232.624-.4492.9238l-.0556.1328a7.9209,7.9209,0,0,0-.5967,2.9453,7.2213,7.2213,0,0,0,.039.7471A6.2543,6.2543,0,0,0,16.1416,28.03l.1533.1416-.0088.209c-.084,2.0063-.291,4.2539-.6152,6.68ZM14.7832,7.6742c1.0273,0,2.02.0474,2.9492.14a10.8837,10.8837,0,0,1,1.2735.1943l1.1347.2529-1.01.5772a18.3968,18.3968,0,0,0-8.1485,14.563l-.0176.27c-.0214.456-.0341.8755-.0341,1.3022.1767,3.9981,1.5048,7.0869,3.95,9.1792.2519-2.0175.4189-3.8989.497-5.6059A7.11,7.11,0,0,1,13.19,23.831a8,8,0,0,1-.043-.8277,8.81,8.81,0,0,1,.6621-3.2817l.0625-.1514c.1348-.3193.2969-.6455.4717-.9712.126-.2348.2441-.4448.373-.6548l.0664-.1054.4746.0932-.3789-.2417c.0879-.1386.1768-.2778.2735-.417q.2358-.3435.5058-.6923c.2285-.295.4815-.58.7354-.8638l.09-.1a22.5186,22.5186,0,0,1,4.8233-4.0161,18.14,18.14,0,0,1,4.4589-2.065,23.2411,23.2411,0,0,1,6.2393-.78l2.09-5.356a37.5316,37.5316,0,0,1-9.9639.4263c-.168-.02-.7861-.0909-1.0986-.1382-.7325-.11-1.4512-.2427-2.1553-.3721-.5811-.1069-1.1514-.2119-1.711-.3008a22.2439,22.2439,0,0,0-3.7871-.2534,4.1609,4.1609,0,0,0-3.54,2.3384A10.9266,10.9266,0,0,0,10.85,7.3026l-.0176-.0044c-.1289.4371-.249.898-.3564,1.3887-.03.1377-.0576.2671-.084.39a4.0914,4.0914,0,0,1,.7871-.6372A6.9792,6.9792,0,0,1,14.7832,7.6742Z"/><path class="cls-1" d="M24.832,38.1625q-.9858,0-1.8916-.0791a17.007,17.007,0,0,1-5.8759-1.4712l-.5665-.2646,1.7627-1.8545a10.2108,10.2108,0,0,0,1.81-2.9483c.0967-.2426.1758-.5014.2559-.76l.1259-.4048.4249.0581a10.1855,10.1855,0,0,0,1.1074.2148l.2119.0132c.37.0645.6943.1187,1.0342.166a41.56,41.56,0,0,0,13.915-.8838l.0137-.0029c1.4092-.2485,2.7353-.5322,3.9424-.8437l2.2949-.5928-1.918,1.3926c-.4053.2939-1.0508.6992-1.9736,1.2392a8.5889,8.5889,0,0,0-1.4776,1.0752c-.7675.7759-1.539,1.5625-2.3056,2.3491a12.1,12.1,0,0,1-3.3965,2.2662,14.3944,14.3944,0,0,1-2.7481.8725l-.1015.02a20.3133,20.3133,0,0,1-2.794.3765c-.3632.0239-.7158.039-1.0634.0493a2.4633,2.4633,0,0,0-.295.0073C25.1582,38.1606,24.9941,38.1625,24.832,38.1625ZM18.0215,36.05a16.5766,16.5766,0,0,0,4.9941,1.1367c.7246.063,1.4854.0835,2.2637.0728a2.8888,2.8888,0,0,1,.3447-.0083c.3047-.01.6455-.0244.9971-.0484a19.379,19.379,0,0,0,2.6709-.3588,13.6879,13.6879,0,0,0,2.67-.836,11.1667,11.1667,0,0,0,3.13-2.0849c.7539-.774,1.5273-1.5625,2.3076-2.3516a8.9176,8.9176,0,0,1,1.3194-1.0034c-.4551.0913-.9219.1792-1.3965.2632a42.4414,42.4414,0,0,1-14.2168.893c-.3516-.0493-.6895-.1054-1.0176-.166l-.1963-.01c-.2705-.0351-.5342-.0805-.8174-.1411-.0537.1646-.1074.3194-.167.4688A11.1,11.1,0,0,1,18.9248,35.1Z"/><path class="cls-1" d="M0,40.7582l.208-.9341A44.99,44.99,0,0,0,1.1074,31.97c-.0322-2.59-.1826-5.7739-.4726-9.9975-.0371-.5425-.0664-1.07-.0928-1.59-.0088-.0737-.02-.205-.0313-.3755a67.6076,67.6076,0,0,1,.1036-9.0488A36.3615,36.3615,0,0,1,1.291,6.94c.08-.3032.1611-.5834.2432-.8544A8.324,8.324,0,0,1,3.8848,2.4633,10.3859,10.3859,0,0,1,10.76.0028l2.0566.0547L10.9453.8666c-.0674.0293-.1348.06-.2012.0923a4.9932,4.9932,0,0,0-1.1425.8462,10.5056,10.5056,0,0,0-1.0274,1.07q-.23.2769-.4414.5688c-.0713.0982-.1387.1958-.2051.2945a.8383.8383,0,0,0-.0654.1255l-.0586.12a13.7075,13.7075,0,0,0-.6474,1.4326,17.0541,17.0541,0,0,0-.6485,2.1953,26.5672,26.5672,0,0,0-.4863,2.937,45.9469,45.9469,0,0,0-.13,8.4746,12.5809,12.5809,0,0,1,6.68-4.0346l.8965-.16-.418.81a18.4383,18.4383,0,0,0-1.3486,3.47l-.0606.2134-.206.0825c-2.0977.8384-3.3164,3.2749-3.8555,4.6528a10.6823,10.6823,0,0,0-.2773,5.9683c.2627,1.4746.5947,2.9663.916,4.4092L8.6406,36.36,1.5283,39.9789l-.3017-.352.207.3994ZM9.1152,1.0316a8.8094,8.8094,0,0,0-4.623,2.0957A7.434,7.434,0,0,0,2.3916,6.36c-.0762.2485-.1533.518-.2275.7964A35.5974,35.5974,0,0,0,1.51,11.0478a66.4443,66.4443,0,0,0-.1006,8.9c.01.1577.02.2792.0283.3564.0293.5469.0586,1.0684.0957,1.606.291,4.2407.4414,7.4409.4736,10.0717a50.07,50.07,0,0,1-.7314,7.1153l1.7607-.8965.3526.3252-.2041-.4009,4.4277-2.2549L7.3389,34.63c-.3233-1.4517-.6573-2.9531-.9239-4.4463a11.5,11.5,0,0,1,.3262-6.4551c.5752-1.4692,1.8692-4.0415,4.1533-5.0722A19.8874,19.8874,0,0,1,11.834,16.09a13.1649,13.1649,0,0,0-5.9326,4.3251l-.6953.95L5.09,20.1938a47.2531,47.2531,0,0,1,.0372-9.7452,27.4131,27.4131,0,0,1,.5039-3.0371A17.8756,17.8756,0,0,1,6.3145,5.1a14.3778,14.3778,0,0,1,.69-1.53,2.3721,2.3721,0,0,1,.1767-.3335c.07-.1059.1455-.2143.2237-.3213.1513-.2089.31-.4155.4775-.6157A11.562,11.562,0,0,1,8.9971,1.1376C9.0361,1.1024,9.0752,1.0673,9.1152,1.0316Zm2.1524,17.9546h0Z"/></symbol></defs><title>Untitled-11</title><use width="43.3965" height="42.5482" transform="scale(1.4107)" xlink:href="#New_Symbol_18"/></svg>