<svg id="Layer_1" data-name="Layer 1" xmlns="http://www.w3.org/2000/svg" xmlns:xlink="http://www.w3.org/1999/xlink" viewBox="0 0 29.1393 58.4175"><defs><style>.cls-1{fill:#1c262d;}</style><symbol id="New_Symbol_1" data-name="New Symbol 1" viewBox="0 0 18.567 38.701"><path class="cls-1" d="M11.6206,38.7007H4.8716a1.0233,1.0233,0,0,1-1.0225-1.022V19.7524H1.0205A1.0227,1.0227,0,0,1,0,18.73V13.1626a1.0228,1.0228,0,0,1,1.0205-1.0234H3.8491V7.3232A7.3294,7.3294,0,0,1,11.1685,0h6.3764a1.0244,1.0244,0,0,1,1.022,1.0244V6.59a1.0238,1.0238,0,0,1-1.022,1.0235H13.771a1.1288,1.1288,0,0,0-1.1279,1.1274v3.398h4.8144a1.0248,1.0248,0,0,1,1.0235,1.1079l-.4732,5.5678a1.0281,1.0281,0,0,1-1.0181.9375H12.6431V37.6787A1.0233,1.0233,0,0,1,11.6206,38.7007Zm-6.6719-1.1h6.5948V18.6528H16.918l.4594-5.414H11.5435V8.7412a2.23,2.23,0,0,1,2.2275-2.227h3.6963V1.1H11.1685a6.2288,6.2288,0,0,0-6.22,6.2236v5.9156H1.1v5.414H4.9487Z"/></symbol></defs><title>Untitled-11</title><use width="18.5669" height="38.7007" transform="scale(1.5685 1.5095)" xlink:href="#New_Symbol_1"/></svg>