<svg id="Layer_1" data-name="Layer 1" xmlns="http://www.w3.org/2000/svg" xmlns:xlink="http://www.w3.org/1999/xlink" viewBox="0 0 61.1563 61.15"><defs><style>.cls-1{fill:#1c262d;}</style><symbol id="New_Symbol_14" data-name="New Symbol 14" viewBox="0 0 38.991 38.987"><path class="cls-1" d="M19.4951,38.9872a4.6437,4.6437,0,0,1-3.293-1.3613L1.3643,22.787a4.6574,4.6574,0,0,1,0-6.5869L16.2021,1.3622a4.6632,4.6632,0,0,1,6.587-.0005L37.627,16.2006a4.6576,4.6576,0,0,1,0,6.5869V22.787L22.7891,37.6254A4.6426,4.6426,0,0,1,19.4951,38.9872ZM19.4961,1.1A3.5474,3.5474,0,0,0,16.98,2.14L2.1416,16.9779a3.5577,3.5577,0,0,0,0,5.0313L16.98,36.848a3.5635,3.5635,0,0,0,5.0322-.0005L36.85,22.0092a3.5571,3.5571,0,0,0,0-5.0308L22.0117,2.14A3.55,3.55,0,0,0,19.4961,1.1Z"/><path class="cls-1" d="M19.4961,14.0292a3.9808,3.9808,0,1,1,3.9805-3.981A3.9849,3.9849,0,0,1,19.4961,14.0292Zm0-6.8618a2.8811,2.8811,0,1,0,2.8809,2.8808A2.8839,2.8839,0,0,0,19.4961,7.1674Z"/><path class="cls-1" d="M28.042,22.6571a3.98,3.98,0,1,1,3.98-3.98A3.9847,3.9847,0,0,1,28.042,22.6571Zm0-6.8613a2.8809,2.8809,0,1,0,2.8809,2.8808A2.884,2.884,0,0,0,28.042,15.7958Z"/><path class="cls-1" d="M19.4961,31.2479a3.9807,3.9807,0,1,1,3.9805-3.98A3.9847,3.9847,0,0,1,19.4961,31.2479Zm0-6.8618a2.8811,2.8811,0,1,0,2.8809,2.8814A2.8841,2.8841,0,0,0,19.4961,24.3861Z"/><polygon class="cls-1" points="25.229 16.637 21.504 12.89 22.283 12.114 26.008 15.861 25.229 16.637"/><polygon class="cls-1" points="16.668 8.023 13.502 4.838 14.281 4.063 17.447 7.248 16.668 8.023"/><rect class="cls-1" x="18.9463" y="13.4794" width="1.0996" height="10.3569"/></symbol></defs><title>Untitled-11</title><use width="38.9912" height="38.9872" transform="scale(1.5685)" xlink:href="#New_Symbol_14"/></svg>