<svg id="Layer_1" data-name="Layer 1" xmlns="http://www.w3.org/2000/svg" xmlns:xlink="http://www.w3.org/1999/xlink" viewBox="0 0 58.3632 43.3809"><defs><style>.cls-1{fill:#1c262d;}.cls-2{fill:none;stroke:#1c262d;stroke-miterlimit:10;stroke-width:1.1px;}</style><symbol id="New_Symbol_11" data-name="New Symbol 11" viewBox="0 0 37.21 27.658"><path class="cls-1" d="M18.6016,15.6963a.5523.5523,0,0,1-.3135-.0977L5.4482,6.6948a.55.55,0,0,1,.627-.9043l12.5254,8.6861L31.1338,5.7422a.55.55,0,1,1,.6289.9023L18.916,15.5977A.5484.5484,0,0,1,18.6016,15.6963Z"/><path class="cls-2" d="M22.265,15.1591"/><path class="cls-2" d="M32.1172,24.2149"/><path class="cls-1" d="M34.2144,27.6582H2.9961A2.999,2.999,0,0,1,0,24.6626V2.9961A2.9992,2.9992,0,0,1,2.9961,0H34.2144A2.9991,2.9991,0,0,1,37.21,2.9961V24.6626A2.9989,2.9989,0,0,1,34.2144,27.6582ZM2.9961,1.1A1.8991,1.8991,0,0,0,1.1,2.9961V24.6626a1.8986,1.8986,0,0,0,1.8965,1.896H34.2144a1.8986,1.8986,0,0,0,1.8964-1.896V2.9961A1.899,1.899,0,0,0,34.2144,1.1Z"/></symbol></defs><title>Untitled-11</title><use width="37.2104" height="27.6582" transform="scale(1.5685)" xlink:href="#New_Symbol_11"/></svg>