<svg id="Layer_1" data-name="Layer 1" xmlns="http://www.w3.org/2000/svg" xmlns:xlink="http://www.w3.org/1999/xlink" viewBox="0 0 52.4906 52.4891"><defs><style>.cls-1{fill:#1c262d;}</style><symbol id="New_Symbol_2" data-name="New Symbol 2" viewBox="0 0 35.041 35.04"><path class="cls-1" d="M28.1226,5.66A1.7833,1.7833,0,1,0,29.406,6.9429,1.7874,1.7874,0,0,0,28.1226,5.66Z"/><path class="cls-1" d="M17.5874,25.6074a8.0881,8.0881,0,1,1,8.0864-8.0869A8.0967,8.0967,0,0,1,17.5874,25.6074Zm0-15.0766a6.9885,6.9885,0,1,0,6.9868,6.99A6.9974,6.9974,0,0,0,17.5874,10.5308Z"/><path class="cls-1" d="M27.0737,35.04H7.9688A7.9778,7.9778,0,0,1,0,27.0708V7.9658A7.9749,7.9749,0,0,1,7.9663,0H27.0742a7.9749,7.9749,0,0,1,7.9663,7.9658v19.107A7.9756,7.9756,0,0,1,27.0737,35.04ZM7.9663,1.1A6.8743,6.8743,0,0,0,1.1,7.9658v19.105A6.877,6.877,0,0,0,7.9688,33.94H27.0737a6.8748,6.8748,0,0,0,6.8672-6.8671V7.9658A6.8743,6.8743,0,0,0,27.0742,1.1Z"/></symbol></defs><title>Untitled-11</title><use width="35.0405" height="35.0396" transform="scale(1.498)" xlink:href="#New_Symbol_2"/></svg>