<svg id="Layer_1" data-name="Layer 1" xmlns="http://www.w3.org/2000/svg" xmlns:xlink="http://www.w3.org/1999/xlink" viewBox="0 0 32.3082 56.14"><defs><style>.cls-1{fill:#1c262d;}</style><symbol id="New_Symbol_9" data-name="New Symbol 9" viewBox="0 0 20.599 35.793"><path class="cls-1" d="M18.0679,35.793H2.5308A2.5337,2.5337,0,0,1,0,33.2622V2.5308A2.5337,2.5337,0,0,1,2.5308,0H18.0679a2.5336,2.5336,0,0,1,2.5307,2.5308V33.2622A2.5336,2.5336,0,0,1,18.0679,35.793ZM2.5308,1.1A1.4329,1.4329,0,0,0,1.1,2.5308V33.2622a1.4329,1.4329,0,0,0,1.4312,1.4312H18.0679a1.4329,1.4329,0,0,0,1.4311-1.4312V2.5308A1.4329,1.4329,0,0,0,18.0679,1.1Z"/><path class="cls-1" d="M12.874,3.3228H7.7246A2.5779,2.5779,0,0,1,5.0674.8384V0H15.5313V.8384A2.5779,2.5779,0,0,1,12.874,3.3228ZM6.1948,1.1a1.5241,1.5241,0,0,0,1.53,1.1235H12.874A1.5241,1.5241,0,0,0,14.4038,1.1Z"/><path class="cls-1" d="M12.3423,33.0332H8.2563a.55.55,0,0,1,0-1.1h4.086a.55.55,0,0,1,0,1.1Z"/></symbol></defs><title>Untitled-11</title><use width="20.5986" height="35.793" transform="scale(1.5685)" xlink:href="#New_Symbol_9"/></svg>