<svg id="Layer_1" data-name="Layer 1" xmlns="http://www.w3.org/2000/svg" xmlns:xlink="http://www.w3.org/1999/xlink" viewBox="0 0 53.7646 55.8566"><defs><style>.cls-1{fill:#1c262d;}</style><symbol id="New_Symbol_10" data-name="New Symbol 10" viewBox="0 0 34.278 35.612"><path class="cls-1" d="M24.8642,35.6123a7.7383,7.7383,0,0,1-1.1611-.0908c-2.65-.4043-6.2188-2.0347-9.79-4.4737a33.7718,33.7718,0,0,1-5.47-4.5322,34.0645,34.0645,0,0,1-4.5376-6.102C1.6875,16.7.2763,13.039.0337,10.3686-.24,7.3569,1.2461,6.0307,1.31,5.9756L4.0268,3.1489a3.4093,3.4093,0,0,1,4.8291.127l3.9614,4.2094a3.2538,3.2538,0,0,1-.14,4.59L9.9951,14.6c.3359.9912,1.352,3.0776,4.4111,6.2949,2.833,2.979,4.7529,4.0493,5.6782,4.4268l2.6827-2.5245a3.255,3.255,0,0,1,4.59.1392l3.9609,4.209a3.41,3.41,0,0,1-.146,4.81L28.13,34.5483A4.6967,4.6967,0,0,1,24.8642,35.6123ZM6.3755,3.3086A2.2832,2.2832,0,0,0,4.8,3.9306L2.0664,6.7724C1.9887,6.8442.91,7.854,1.1294,10.269c.228,2.5117,1.5839,6.0039,3.72,9.5806a32.9352,32.9352,0,0,0,4.39,5.9072h0A32.654,32.654,0,0,0,14.5327,30.14c3.44,2.3491,6.8432,3.9141,9.3364,4.294a4.1627,4.1627,0,0,0,3.5151-.6929l3.0542-2.6045a2.3124,2.3124,0,0,0,.0791-3.2368L26.5566,23.69a2.133,2.133,0,0,0-1.499-.6719,2.1739,2.1739,0,0,0-1.5366.58l-2.7261,2.5655a.9925.9925,0,0,1-1.0513.2065c-1.2026-.4736-3.2431-1.6768-6.1343-4.7173C10.333,18.208,9.27,15.9287,8.9282,14.8769a.99.99,0,0,1,.27-1.0371l2.7256-2.5654a2.1548,2.1548,0,0,0,.0928-3.0352L8.0551,4.03a2.287,2.287,0,0,0-1.6069-.72C6.4238,3.3091,6.3994,3.3086,6.3755,3.3086Z"/><path class="cls-1" d="M33.728,16.3681a.55.55,0,0,1-.5444-.4765,17.4447,17.4447,0,0,0-14.1158-14.8A.55.55,0,0,1,19.2666.01,18.5452,18.5452,0,0,1,34.2734,15.7441a.5522.5522,0,0,1-.5454.624Z"/><path class="cls-1" d="M27.4238,16.84a.55.55,0,0,1-.5444-.4766,10.2319,10.2319,0,0,0-8.2789-8.6806.55.55,0,0,1,.1983-1.082,11.3319,11.3319,0,0,1,9.17,9.6152.5494.5494,0,0,1-.4712.6186A.5347.5347,0,0,1,27.4238,16.84Z"/></symbol></defs><title>Untitled-11</title><use width="34.2785" height="35.6123" transform="scale(1.5685)" xlink:href="#New_Symbol_10"/></svg>