<svg id="Layer_1" data-name="Layer 1" xmlns="http://www.w3.org/2000/svg" xmlns:xlink="http://www.w3.org/1999/xlink" viewBox="0 0 58.8647 47.5269"><defs><symbol id="New_Symbol_3" data-name="New Symbol 3" viewBox="0 0 40.573 32.69"><path d="M12.7822,32.69a25.0616,25.0616,0,0,1-2.6894-.146A23.15,23.15,0,0,1,.45,29.24c-.0732-.0449-.1421-.0947-.21-.1455l-.2363-.1758L0,28.5842.03,28.01l.5737.0136a15.6866,15.6866,0,0,0,8.1992-1.3447,14.6306,14.6306,0,0,0,1.9737-1.0938c-3.4234-.8125-6.1275-3.1469-6.5157-5.7768l-.1093-.7388.7377.1148a8.9735,8.9735,0,0,0,1.0293.102A8.6428,8.6428,0,0,1,1.4014,11.96a.7462.7462,0,0,1,.3105-.7055.7188.7188,0,0,1,.7349.02,11.0315,11.0315,0,0,0,1.3047.51C1.2129,8.9562.8,5.5944,2.53,1.7687l.28-.62.5473.4043a3.4074,3.4074,0,0,1,.63.63c.0518.0635.102.1255.1553.1841A22.0773,22.0773,0,0,0,16.6738,9.4338c.646.122,1.3384.2153,2.2051.2954a8.1722,8.1722,0,0,1,1.729-6.4575,8.2507,8.2507,0,0,1,8.1426-3.15A8.0965,8.0965,0,0,1,33.3,2.4528,15.4763,15.4763,0,0,0,37.4507.8981L39.1362.0129l-.4233,1.2885a8.5768,8.5768,0,0,1-1.9141,3.251q.4124-.1128.82-.2422c.3057-.0976.6075-.21.9307-.33l2.0234-.7319-.8808,1.3662a15.04,15.04,0,0,1-1.94,2.4014,13.8643,13.8643,0,0,1-1.8745,1.6348,23.8859,23.8859,0,0,1-4.415,14.4409,21.8443,21.8443,0,0,1-13.1983,8.9633A23.752,23.752,0,0,1,12.7822,32.69ZM2.6372,29.2013A21.9163,21.9163,0,0,0,10.2109,31.45a23.0138,23.0138,0,0,0,7.8008-.4654A20.7771,20.7771,0,0,0,30.5625,22.46a22.6081,22.6081,0,0,0,4.1992-13.705,1.1078,1.1078,0,0,1,.48-1.0015,12.72,12.72,0,0,0,1.7236-1.5059c.2691-.2754.5166-.5454.7466-.8144q-.6217.19-1.2544.3432a5.7567,5.7567,0,0,1-1.5512.2212l-1.7281-.0156,1.419-.9858a7.9354,7.9354,0,0,0,2.4751-2.67,17.1987,17.1987,0,0,1-3.5064,1.1953,1.0384,1.0384,0,0,1-1.0405-.2871,7.0112,7.0112,0,0,0-3.939-2.0249,7.2125,7.2125,0,0,0-7.1211,2.7519,7.1612,7.1612,0,0,0-1.44,5.9815.7063.7063,0,0,1-.83.9184,26.014,26.014,0,0,1-2.7256-.3462A23.1518,23.1518,0,0,1,3.3281,3.1056c-.0376-.041-.0742-.0835-.1108-.1274-1.3682,3.6167-.5337,6.6353,2.5381,9.209l1.1172.9355-1.4566.0357a7.4257,7.4257,0,0,1-2.8735-.6406,7.5125,7.5125,0,0,0,5.3086,6.3774,1.1589,1.1589,0,0,1,.7134.3247l.6323.6733-.8931.2349a8.2809,8.2809,0,0,1-2.771.2373c.7793,2.145,3.5337,3.99,6.6714,4.3555l1.3018.1518-1.0205.8228a15.161,15.161,0,0,1-3.2227,1.9819A16.6036,16.6036,0,0,1,2.6372,29.2013Zm-.51-17.47-.2187.5044a.36.36,0,0,0,.13.023Z"/></symbol></defs><title>Untitled-11</title><use width="40.5732" height="32.6901" transform="scale(1.4508)" xlink:href="#New_Symbol_3"/></svg>