<svg id="Layer_1" data-name="Layer 1" xmlns="http://www.w3.org/2000/svg" xmlns:xlink="http://www.w3.org/1999/xlink" viewBox="0 0 57.5583 57.9726"><defs><style>.cls-1{fill:#1c262d;}</style><symbol id="New_Symbol_4" data-name="New Symbol 4" viewBox="0 0 36.697 36.961"><path class="cls-1" d="M23.4692,27.1069c-.6753,0-1.812-.2617-4.5786-1.4731a17.6729,17.6729,0,0,1-7.4614-7.0366l-.0713-.1133a8.9984,8.9984,0,0,1-1.7305-4.97A5.45,5.45,0,0,1,11.3887,9.6l.083-.083a2.1771,2.1771,0,0,1,1.6133-.67c.1635.0059.3281.0225.4873.0391.1235.0126.2426.0253.3549.0293.54-.01,1.0826.1113,1.4624,1.1333l.502,1.3569c.2822.7666.6689,1.8169.7251,1.9429a1.3571,1.3571,0,0,1-.0127,1.2651l-.0566.106a2.93,2.93,0,0,1-.4922.7241l-.2271.2534c-.1714.1943-.3437.3877-.4922.5249a1.007,1.007,0,0,0-.1577.167,13.0188,13.0188,0,0,0,2.2813,3.081,10.8868,10.8868,0,0,0,3.03,2.08c.1372.0659.2475.12.3271.1641a.6215.6215,0,0,0,.23.0908.923.923,0,0,0,.0683-.064c.2969-.3178,1.1353-1.2353,1.4156-1.6225a1.2309,1.2309,0,0,1,1.6582-.3721c.4873.1982,2.9585,1.543,3.0219,1.5776l.2286.1226a1.7645,1.7645,0,0,1,.8183.645,3.9279,3.9279,0,0,1-.3066,2.5591c-.52,1.2876-2.6118,2.2842-3.5469,2.3355a1.8827,1.8827,0,0,0-.2939.0444A3.0035,3.0035,0,0,1,23.4692,27.1069ZM13.0181,9.9453a1.0876,1.0876,0,0,0-.7647.3452l-.0918.0913a4.37,4.37,0,0,0-1.4345,3.1734,7.8925,7.8925,0,0,0,1.5312,4.2964l.106.1665A16.5844,16.5844,0,0,0,19.332,24.626c3.5113,1.5376,4.0928,1.4194,4.5606,1.3257a2.9389,2.9389,0,0,1,.4531-.065,4.0357,4.0357,0,0,0,2.585-1.647,3.853,3.853,0,0,0,.3359-1.6831c-.002.0391-.19-.059-.3408-.1381l-.2432-.13c-.6162-.3379-2.5732-1.3872-2.91-1.5239a1.1947,1.1947,0,0,0-.2768-.0923c0,.0053-.03.03-.0747.0913-.377.521-1.459,1.6816-1.5049,1.7309a1.2463,1.2463,0,0,1-1.63.1831c-.0713-.04-.1621-.083-.2749-.1372a12.077,12.077,0,0,1-3.3149-2.2778A13.797,13.797,0,0,1,14.249,16.97a1.1755,1.1755,0,0,1,.3389-1.5556c.1269-.1172.271-.2823.416-.4463l.2456-.2745a1.9084,1.9084,0,0,0,.3262-.49l.0625-.1177c.0312-.0561.0576-.1045-.0254-.2885-.0674-.1514-.33-.8614-.7534-2.0127l-.5005-1.3526c-.1318-.3545-.2329-.417-.2339-.4179a.8713.8713,0,0,0-.105-.0005l-.1333.0005c-.1347-.0049-.2783-.02-.4272-.0347-.1348-.0142-.2744-.0288-.4151-.0337Z"/><path class="cls-1" d="M0,36.9614,3.3921,26.877a17.8519,17.8519,0,1,1,7.0073,6.7543ZM18.8247,1.1a16.7723,16.7723,0,0,0-14.36,25.4292l.1318.2178-2.86,8.5039,8.7779-2.811.2075.1147A16.7714,16.7714,0,1,0,18.8247,1.1Z"/></symbol></defs><title>Untitled-11</title><use width="36.6973" height="36.9614" transform="scale(1.5685)" xlink:href="#New_Symbol_4"/></svg>